# xmcd
#
# Track frame offsets: 
#        183
#        17660
#        37528
#        53458
#        72630
#        89955
#        104965
#        130820
#
# Disc length: 1944 seconds
#
# Revision: 2
# Processed by: cddbd v1.5.2PL0 Copyright (c) Steve Scherf et al.
# Submitted via: ExactAudioCopy v0.99pb3
#
DISCID=6c079608
DTITLE=Lou Reed - Live In Italy
DYEAR=1983
DGENRE=Avantgarde
TTITLE0=Sweet Jane
TTITLE1=Walk On The Wild Side
TTITLE2=Sally Can't Dance
TTITLE3=Martial Low
TTITLE4=I'm Waiting For My Man
TTITLE5=Waves Of Fear
TTITLE6=Kill Your Sons
TTITLE7=White Light - White Heat
EXTD=
EXTT0=
EXTT1=
EXTT2=
EXTT3=
EXTT4=
EXTT5=
EXTT6=
EXTT7=
PLAYORDER=
